# xmcd CD database file
#
# Track frame offsets:
#	150
#	14737
#	35017
#	54732
#	78022
#	107292
#	148287
#	169512
#
# Disc length: 2536 seconds
#
# Revision: 0
# Processed by: cddbd v1.5.1PL2 Copyright (c) Steve Scherf et al.
# Submitted via: CDex 1.60beta1
#
DISCID=6309e608
DTITLE=Joe Pass - Sounds of Synanon (remaster
DYEAR=2002
DGENRE=Jazz
TTITLE0=C.E.D.
TTITLE1=Aaron's Song
TTITLE2=Stay Loose
TTITLE3=Projections
TTITLE4=Hang Tough
TTITLE5=Self-image
TTITLE6=Last Call for Coffee
TTITLE7=Blues
EXTD=YEAR: 2002
EXTT0=
EXTT1=
EXTT2=
EXTT3=
EXTT4=
EXTT5=
EXTT6=
EXTT7=
PLAYORDER=
